<svg width="18" height="18" viewBox="0 0 18 18" fill="none" xmlns="http://www.w3.org/2000/svg">
<path d="M2 0C1.46957 0 0.960859 0.210714 0.585786 0.585786C0.210714 0.960859 0 1.46957 0 2V16C0 16.5304 0.210714 17.0391 0.585786 17.4142C0.960859 17.7893 1.46957 18 2 18H16C16.5304 18 17.0391 17.7893 17.4142 17.4142C17.7893 17.0391 18 16.5304 18 16V2C18 1.46957 17.7893 0.960859 17.4142 0.585786C17.0391 0.210714 16.5304 0 16 0H2ZM2.5 5.5H4C4.36 5.5 4.5 5.66 4.64 6.07C5.36 8.17 6.57 10 7.07 10C7.26 10 7.35 9.92 7.35 9.45V7.28C7.29 6.28 6.76 6.19 6.76 5.84C6.76 5.67 6.9 5.5 7.14 5.5H9.45C9.77 5.5 9.87 5.67 9.87 6.04V8.96C9.87 9.27 10 9.38 10.1 9.38C10.29 9.38 10.45 9.27 10.79 8.93C11.85 7.74 12.6 5.92 12.6 5.92C12.7 5.7 12.87 5.5 13.24 5.5H14.71C15.16 5.5 15.26 5.73 15.16 6.04C14.97 6.9 13.18 9.43 13.18 9.43C13 9.68 12.96 9.8 13.18 10.09C13.33 10.3 13.85 10.74 14.19 11.15C14.83 11.86 15.3 12.46 15.44 12.87C15.56 13.29 15.35 13.5 14.93 13.5H13.45C12.89 13.5 12.73 13.05 11.73 12.05C10.85 11.21 10.5 11.1 10.26 11.1C9.96 11.1 9.87 11.18 9.87 11.61V12.93C9.87 13.29 9.76 13.5 8.82 13.5C7.26 13.5 5.54 12.55 4.33 10.8C2.5 8.24 2 6.31 2 5.92C2 5.7 2.08 5.5 2.5 5.5Z" fill="#333333"/>
</svg>
