<svg width="131" height="33" viewBox="0 0 131 33" xmlns="http://www.w3.org/2000/svg"><title>Group 48</title><desc>Created with Sketch.</desc><defs><linearGradient x1="60.098%" y1="91.991%" x2="33.495%" y2="-59.243%" id="a"><stop stop-color="#D6FFA1" offset="0%"/><stop stop-color="#93E2A7" offset="32.64%"/><stop stop-color="#00A3B5" offset="100%"/></linearGradient><linearGradient x1="-32.008%" y1="-128.786%" x2="80.465%" y2="114.297%" id="b"><stop stop-color="#FF177B" offset="0%"/><stop stop-color="#FFA976" offset="67.21%"/><stop stop-color="#FFEC73" offset="100%"/></linearGradient><linearGradient x1="50.897%" y1="74.712%" x2="-.02%" y2="-29.447%" id="c"><stop stop-color="#63FFD4" offset="0%"/><stop stop-color="#32A0BA" offset="48.54%"/><stop stop-color="#1262A9" offset="83.49%"/><stop stop-color="#064AA2" offset="100%"/></linearGradient><linearGradient x1="119.287%" y1="35.676%" x2="-23.004%" y2="61.178%" id="d"><stop stop-color="#FF4521" offset="0%"/><stop stop-color="#D43E65" offset="34.11%"/><stop stop-color="#9F36B9" offset="79.35%"/><stop stop-color="#8A33DB" offset="100%"/></linearGradient></defs><g fill="none"><path d="M22.162 11.177l-19.685-10.867c-.557-.307-1.073-.378-1.49-.248l16.126 16.189 5.049-5.074z" id="Shape" fill="url(#a)"/><path d="M22.189 21.349l6.719-3.71c1.363-.755 1.363-1.985 0-2.737l-6.745-3.725-5.052 5.074 5.078 5.098z" id="Shape" fill="url(#b)"/><path d="M.986.063c-.599.188-.986.797-.986 1.718l.004 28.98c0 .91.376 1.511.958 1.711l16.151-16.217-16.126-16.191z" fill="url(#c)"/><path d="M.961 32.471c.419.142.945.076 1.516-.239l19.71-10.883-5.074-5.095-16.151 16.217z" fill="url(#d)"/><path d="M125.621 25.179c-.533 1.237-1.372 1.831-2.525 1.831-.346 0-.802-.061-1.069-.143l.184-.978c.228.101.619.163.867.163.654 0 1.109-.265 1.519-1.203l.78-1.752-4.214-9.919h1.193l3.615 8.596 3.579-8.596h1.21l-5.139 12.001zm-6.699-3.085c-.033-.251-.051-.507-.051-.767-.367.534-.887.978-1.55 1.328-.664.352-1.295.525-2.161.525-1.042 0-1.851-.254-2.428-.77-.575-.515-.865-1.213-.865-2.096 0-.882.419-1.598 1.255-2.145.836-.55 1.917-.823 3.254-.823h2.495v-1.223c0-.704-.242-1.257-.725-1.659-.485-.402-1.166-.605-2.048-.605-.807 0-1.461.186-1.959.547-.494.369-.742.826-.742 1.377h-1.095l-.023-.053c-.04-.743.303-1.395 1.032-1.958.725-.563 1.676-.845 2.846-.845 1.166 0 2.109.279 2.821.834.711.55 1.067 1.345 1.067 2.383v4.853c0 .348.017.685.061 1.013.045.329.117.657.213.974h-1.232c-.072-.341-.125-.641-.165-.893v.003zm-.052-3.906h-2.507c-.958 0-1.75.21-2.374.634-.625.422-.942.934-.942 1.528 0 .561.201 1.01.6 1.35.4.344.946.514 1.642.514.909 0 1.562-.201 2.229-.6.663-.396 1.114-.913 1.351-1.538v-1.889l.001.001zm-9.731-8.762h1.069v13.59h-1.069v-13.59zm-5.9 13.835c-1.397 0-2.647-.714-3.449-1.833v5.341h-1.07v-13.59h1.07v1.547c.696-1 1.97-1.793 3.449-1.793 2.652 0 4.439 1.995 4.439 5.154 0 3.137-1.787 5.174-4.439 5.174zm-.181-9.37c-1.378 0-2.696 1.074-3.268 2.01v4.35c.573.938 1.89 2.051 3.268 2.051 2.219 0 3.471-1.831 3.471-4.215 0-2.381-1.252-4.196-3.471-4.196zm-10.375 8.393c-.233.128-.466.276-.698.381-.703.316-1.417.396-2.052.396-.676 0-1.734-.043-2.814-.818-1.501-1.048-2.157-2.85-2.157-4.421 0-3.251 2.669-4.845 4.845-4.845.761 0 1.543.189 2.178.587 1.056.692 1.33 1.593 1.482 2.075l-4.972 1.991-1.628.126c.527 2.665 2.346 4.215 4.355 4.215 1.004 0 1.749-.325 2.433-.66 0 0 .137-.071.039.026l-1.012.946.001.001zm-1.988-6.248c.404-.146.614-.271.614-.563 0-.837-.956-1.805-2.096-1.805-.845 0-2.431.652-2.431 2.918 0 .354.042.73.064 1.107l3.849-1.657zm-7.395 5.14c0 .815.147.942.841 1.005l1.081.103-.782.462h-3.727c.489-.629.573-.691.573-1.11v-.468l-.008-12.467h-1.645l1.584-.757h3.024c-.655.376-.851.606-.936 1.339l-.005 11.892v.001zm-4.466-7.17h-1.313c.485.396 1.499 1.235 1.499 2.829 0 1.553-.883 2.285-1.773 2.977-.273.273-.592.569-.592 1.026 0 .464.319.715.55.903l.764.585c.929.777 1.775 1.49 1.775 2.937 0 1.973-1.925 3.961-5.563 3.961-3.064 0-4.546-1.447-4.546-2.998 0-.755.379-1.825 1.63-2.557 1.311-.795 3.087-.901 4.038-.963-.297-.38-.636-.779-.636-1.428 0-.356.108-.567.212-.817-.231.022-.465.044-.676.044-2.243 0-3.511-1.659-3.511-3.294 0-.964.444-2.034 1.355-2.809 1.206-.984 2.643-1.154 3.786-1.154h4.358l-1.355.759-.002-.001zm-5.517 9.621c-.468.17-1.821.671-1.821 2.161 0 1.486 1.461 2.558 3.721 2.558 2.03 0 3.108-.965 3.108-2.264 0-1.069-.698-1.634-2.302-2.768-.173-.022-.277-.022-.487-.022-.192 0-1.334.041-2.219.335zm1.18-9.686c-.548 0-1.143.273-1.48.695-.357.437-.465 1.004-.465 1.549 0 1.404.826 3.733 2.642 3.733.53 0 1.1-.256 1.435-.587.489-.484.531-1.152.531-1.532 0-1.508-.907-3.857-2.664-3.857l.001-.001zm-1.088-12.947v2.353h-.582v-3.29h.597l1.697 2.279v-2.279h.582v3.29h-.563l-1.732-2.353h.001zm-2.959 2.412c-.996 0-1.697-.72-1.697-1.702s.702-1.702 1.697-1.702c.99 0 1.697.72 1.697 1.702s-.707 1.702-1.697 1.702zm0-2.891c-.672 0-1.1.508-1.1 1.189 0 .676.428 1.189 1.1 1.189.667 0 1.1-.513 1.1-1.189 0-.681-.433-1.189-1.1-1.189zm-4.652 1.598h-.881v1.233h-.582v-3.29h1.463c.696 0 1.08.469 1.08 1.031 0 .557-.388 1.026-1.08 1.026zm-.08-1.549h-.801v1.041h.801c.329 0 .562-.207.562-.518 0-.316-.234-.523-.562-.523zm-3.074 1.549h-.881v1.233h-.582v-3.29h1.463c.697 0 1.08.469 1.08 1.031 0 .557-.388 1.026-1.08 1.026zm-.08-1.549h-.801v1.041h.801c.329 0 .562-.207.562-.518 0-.316-.234-.523-.562-.523zm-2.77 2.146h-1.523l-.244.636h-.662l1.304-3.29h.727l1.304 3.29h-.662l-.244-.636zm-.761-2.077l-.597 1.569h1.194l-.597-1.569zm-5.149 2.713h-1.239v-3.29h1.234c1.04 0 1.737.681 1.737 1.643 0 .971-.697 1.647-1.732 1.647zm0-2.782h-.657v2.274h.652c.721 0 1.14-.513 1.14-1.139 0-.631-.398-1.135-1.135-1.135zm4.643 17.36c0 2.474-1.922 5.093-5.37 5.093-3.362 0-5.158-2.596-5.158-4.945 0-2.746 2.262-5.095 5.476-5.095 3.107 0 5.052 2.413 5.052 4.947zm-7.504-3.585c-.827.734-.974 1.655-.974 2.56 0 2.072 1.037 5.489 3.595 5.489.826 0 1.668-.397 2.156-1.067.507-.671.634-1.509.634-2.325 0-1.847-.89-5.368-3.51-5.368-.7 0-1.395.27-1.903.712l.002-.001zm.209-14.283h.582v3.29h-.582v-3.29zm-2.378 3.35c-.996 0-1.697-.72-1.697-1.702s.702-1.702 1.697-1.702c.99 0 1.697.72 1.697 1.702s-.707 1.702-1.697 1.702zm0-2.891c-.672 0-1.1.508-1.1 1.189 0 .676.428 1.189 1.1 1.189.667 0 1.1-.513 1.1-1.189 0-.681-.433-1.189-1.1-1.189zm-4.54 11.627l.495-.783c-.671-.649-1.903-1.848-4.242-1.848-3.128 0-5.487 2.357-5.487 5.799 0 3.697 2.695 7.174 7.015 7.174 1.27 0 1.923-.253 2.516-.489v-3.169l-2.993.16 1.587-.845h4.201l-.514.49c-.139.117-.157.157-.196.313-.021.179-.04.748-.04.948v2.397l-2.835.643c-1.149.18-2.18.338-3.272.338-5.468 0-7.551-3.991-7.551-7.115 0-3.815 2.952-7.351 8.007-7.351 1.07 0 2.099.156 3.036.409 1.486.414 2.18.924 2.615 1.223l-1.647 1.551-.695.154v.001zm1.63-8.796l-.732-1.228h-.582v1.228h-.582v-3.29h1.458c.657 0 1.09.42 1.09 1.031 0 .582-.388.903-.791.967l.816 1.292h-.677zm.055-2.264c0-.316-.239-.518-.568-.518h-.801v1.046h.801c.329 0 .568-.207.568-.528zm-4.368 2.264h-1.239v-3.29h1.234c1.04 0 1.737.681 1.737 1.643 0 .971-.697 1.647-1.732 1.647zm0-2.782h-.657v2.274h.652c.721 0 1.14-.513 1.14-1.139 0-.631-.398-1.135-1.135-1.135zm-4.363.43v2.353h-.582v-3.29h.597l1.697 2.279v-2.279h.582v3.29h-.563l-1.732-2.353h.001zm-1.97 1.716h-1.523l-.244.636h-.662l1.304-3.29h.727l1.304 3.29h-.662l-.244-.636zm-.761-2.077l-.597 1.569h1.194l-.597-1.569zm30.19 12.344c3.109 0 5.056 2.413 5.056 4.947 0 2.474-1.925 5.093-5.373 5.093-3.361 0-5.16-2.596-5.16-4.945 0-2.746 2.261-5.095 5.477-5.095zm-3.426 3.922c0 2.072 1.032 5.489 3.595 5.489.827 0 1.671-.397 2.158-1.067.512-.671.635-1.509.635-2.325 0-1.847-.887-5.368-3.51-5.368-.698 0-1.4.27-1.906.712-.826.734-.973 1.655-.973 2.56l.001-.001z" fill="#000"/></g></svg>