<svg width="15" height="10" viewBox="0 0 15 10" fill="none" xmlns="http://www.w3.org/2000/svg">
<path d="M0 6.23327C1.2 4.51686 2.4 2.75529 3.6 1.03888C4.10769 1.80675 4.66153 2.52944 5.16923 3.29731C5.95384 2.1681 6.6923 1.08405 7.47692 0C8.26153 1.08405 8.99999 2.21326 9.78461 3.29731C10.2923 2.52944 10.8461 1.80675 11.3538 1.03888C12.5538 2.75529 13.7538 4.51686 14.9538 6.23327C9.96923 6.23327 4.98461 6.23327 0 6.23327ZM3.6 1.26472C2.49231 2.89079 1.38461 4.4717 0.230769 6.09777C2.49231 6.09777 4.70769 6.09777 6.92307 6.09777C5.86153 4.51686 4.70769 2.89079 3.6 1.26472ZM11.5385 6.14294C10.1538 4.15552 8.81538 2.21326 7.47692 0.271012C7.43076 0.31618 7.43076 0.361349 7.38461 0.361349C7.24615 0.542024 7.10769 0.722698 7.01538 0.903373C6.46153 1.71641 5.86153 2.52944 5.30769 3.34248C5.26153 3.38765 5.26153 3.43282 5.30769 3.52315C5.63076 3.97484 5.95384 4.42653 6.27692 4.87821C6.27692 4.87821 6.32307 4.92338 6.32307 4.96855C7.01538 3.97484 7.70768 2.93596 8.39999 1.94225C9.32307 3.29731 10.2461 4.6072 11.2154 5.96226C9.78461 5.96226 8.39999 5.96226 7.01538 5.96226C7.06153 6.09777 7.10769 6.09777 7.24615 6.09777C8.63076 6.09777 10.0615 6.09777 11.4461 6.09777C11.4923 6.14294 11.4923 6.14294 11.5385 6.14294ZM11.3538 1.30989C10.8461 2.03259 10.3846 2.71012 9.87692 3.43282C9.83077 3.47799 9.87692 3.47799 9.87692 3.52315C10.0615 3.79417 10.2461 4.06518 10.4308 4.33619C10.4769 4.42653 10.5692 4.51686 10.6615 4.65237C11.1231 3.97484 11.5846 3.34248 12.0461 2.66495C12.8308 3.79417 13.5692 4.87821 14.3538 6.00743C13.4308 6.00743 12.5077 6.00743 11.6308 6.00743C11.6769 6.0526 11.6769 6.14294 11.7692 6.14294C12.7385 6.14294 13.6615 6.14294 14.6308 6.14294C14.6308 6.14294 14.6769 6.14294 14.7231 6.14294C13.5692 4.51686 12.4615 2.89079 11.3538 1.30989Z" fill="#1A578E"/>
<path d="M2.21545 9.39506C2.26161 9.39506 2.26161 9.39506 2.30776 9.39506C2.40007 9.39506 2.49238 9.30473 2.53853 9.21439C2.58468 9.03372 2.58469 8.85304 2.58469 8.67237C2.58469 8.26585 2.58469 7.81416 2.58469 7.40764C2.58469 7.31731 2.58468 7.31731 2.67699 7.31731C3.27699 7.31731 3.87699 7.31731 4.47699 7.31731C4.5693 7.31731 4.5693 7.31731 4.5693 7.40764C4.5693 8.22068 4.5693 8.98855 4.5693 9.80158C4.5693 9.89192 4.5693 9.89192 4.47699 9.89192C4.29237 9.89192 4.15392 9.89192 3.9693 9.89192C3.92315 9.89192 3.87699 9.89192 3.87699 9.80158C3.87699 9.21439 3.87699 8.58203 3.87699 7.99484C3.87699 7.9045 3.87699 7.9045 3.78468 7.9045C3.64622 7.9045 3.4616 7.9045 3.32314 7.9045C3.27699 7.9045 3.23084 7.9045 3.23084 7.99484C3.23084 8.31102 3.23084 8.67237 3.18469 8.98855C3.18469 9.16922 3.13853 9.3499 3.09237 9.53057C3.00007 9.80158 2.7693 9.93709 2.49238 9.98226C2.30776 9.98226 2.30776 9.98226 2.30776 9.80158C2.26161 9.66608 2.26161 9.53057 2.21545 9.39506Z" fill="#1A578E"/>
<path d="M7.6154 9.89192C7.5231 9.89192 7.43079 9.89192 7.38463 9.89192C7.20002 9.89192 7.01541 9.89192 6.83079 9.89192C6.78464 9.89192 6.73848 9.89192 6.69233 9.84675C6.4154 9.53057 6.18464 9.16922 5.90771 8.85304C5.90771 8.85304 5.86156 8.80787 5.86156 8.7627C5.86156 8.85304 5.86156 8.94338 5.86156 8.98855C5.86156 9.25956 5.86156 9.53057 5.86156 9.80158C5.86156 9.84675 5.86156 9.89192 5.76925 9.89192C5.58464 9.89192 5.44618 9.89192 5.26156 9.89192C5.21541 9.89192 5.16925 9.89192 5.16925 9.80158C5.16925 8.98855 5.16925 8.22068 5.16925 7.40764C5.16925 7.36248 5.16926 7.31731 5.26156 7.31731C5.44618 7.31731 5.63079 7.31731 5.86156 7.31731C5.86156 7.67866 5.86156 7.99484 5.86156 8.35618C5.90771 8.31102 5.95387 8.26585 6.00002 8.17551C6.23079 7.9045 6.41541 7.63349 6.64618 7.36248C6.69233 7.31731 6.69233 7.31731 6.78463 7.31731C7.0154 7.31731 7.29233 7.31731 7.5231 7.31731C7.5231 7.36248 7.47694 7.36248 7.47694 7.36248C7.15386 7.72382 6.83079 8.08517 6.55386 8.44652C6.50771 8.49169 6.50771 8.53686 6.55386 8.58203C6.87694 8.98855 7.24618 9.39506 7.56925 9.80158C7.56925 9.84675 7.56925 9.84675 7.6154 9.89192Z" fill="#1A578E"/>
<path d="M10.4769 9.89193C10.2461 9.89193 10.0154 9.89193 9.78461 9.89193L9.73846 9.84676C9.69231 9.75642 9.64615 9.62092 9.6 9.53058C9.6 9.48541 9.55385 9.48541 9.50769 9.48541C9.23077 9.48541 8.95385 9.48541 8.72308 9.48541C8.67692 9.48541 8.63076 9.48541 8.63076 9.53058C8.58461 9.62092 8.53846 9.75642 8.49231 9.84676C8.49231 9.89193 8.44615 9.89193 8.44615 9.89193C8.21538 9.89193 8.03077 9.89193 7.8 9.89193C7.8 9.89193 7.8 9.89193 7.75385 9.89193C7.8 9.75642 7.84615 9.62092 7.89231 9.53058C8.12308 8.94339 8.35385 8.35619 8.58462 7.769C8.63077 7.67867 8.67692 7.54316 8.72308 7.45282C8.72308 7.40765 8.76923 7.40765 8.81538 7.40765C9 7.40765 9.23077 7.40765 9.41539 7.40765C9.46154 7.40765 9.50769 7.40765 9.50769 7.45282C9.83077 8.26586 10.1077 9.07889 10.4308 9.89193C10.4769 9.84676 10.4769 9.84676 10.4769 9.89193ZM8.86153 8.94339C9.04615 8.94339 9.23077 8.94339 9.41539 8.94339C9.32308 8.67238 9.23077 8.40136 9.13846 8.13035C9.13846 8.13035 9.13846 8.13035 9.0923 8.13035C9.04615 8.40136 8.95384 8.67238 8.86153 8.94339Z" fill="#1A578E"/>
<path d="M1.24619 8.85306C1.01542 8.85306 0.784656 8.85306 0.600041 8.85306C0.507733 8.85306 0.415426 8.85306 0.369272 8.85306C0.323118 8.80789 0.369272 8.71755 0.369272 8.62721C0.369272 8.58204 0.369272 8.49171 0.369272 8.44654C0.369272 8.40137 0.36927 8.3562 0.461578 8.3562C0.692347 8.3562 0.923116 8.3562 1.15389 8.3562C1.20004 8.3562 1.24619 8.3562 1.29235 8.3562C1.20004 8.17553 1.10773 8.08519 0.969273 7.99485C0.69235 7.85935 0.415423 7.94968 0.0923462 8.17553V8.13036C0.0923462 7.90452 0.0923462 7.67867 0.0923462 7.498C0.0923462 7.45283 0.092349 7.40766 0.138503 7.40766C0.923118 7.09148 1.70773 7.45283 1.98466 8.13036C2.35389 8.98856 1.80004 9.84677 0.876967 9.98227C0.600044 10.0274 0.369272 9.98227 0.138503 9.89194L0.0923462 9.84677C0.0923462 9.62092 0.0923462 9.34991 0.0923462 9.0789C0.369269 9.30474 0.646196 9.39508 0.969273 9.25957C1.06158 9.16924 1.20004 9.03373 1.24619 8.85306Z" fill="#1A578E"/>
<path d="M10.8923 8.58203C10.8923 8.17551 10.8923 7.81416 10.8923 7.40764C10.8923 7.31731 10.8923 7.31731 10.9846 7.31731C11.3077 7.31731 11.6308 7.31731 12 7.31731C12.1385 7.31731 12.3231 7.36248 12.4616 7.40764C12.6462 7.49798 12.7846 7.63349 12.8308 7.81416C12.9231 8.04 12.9231 8.26585 12.8308 8.49169C12.7385 8.80787 12.5077 8.94338 12.1846 8.98855C12 8.98855 11.8154 8.98855 11.6769 8.98855C11.5846 8.98855 11.5846 8.98855 11.5846 9.07888C11.5846 9.30473 11.5846 9.53057 11.5846 9.75641C11.5846 9.80158 11.5846 9.84675 11.4923 9.84675C11.3077 9.84675 11.1693 9.84675 10.9846 9.84675C10.9385 9.84675 10.8923 9.84675 10.8923 9.75641C10.8923 9.39506 10.8923 8.98855 10.8923 8.58203ZM11.5846 8.17551C11.5846 8.26585 11.5846 8.35619 11.5846 8.44652C11.5846 8.49169 11.5846 8.49169 11.6308 8.49169C11.7231 8.49169 11.8154 8.49169 11.9539 8.49169C12.1385 8.44652 12.1846 8.35619 12.1846 8.17551C12.1846 7.99484 12.0923 7.9045 11.9539 7.85933C11.8616 7.85933 11.7693 7.85933 11.6308 7.85933C11.5846 7.85933 11.5846 7.85933 11.5846 7.9045C11.5846 7.99484 11.5846 8.08517 11.5846 8.17551Z" fill="#1A578E"/>
<path d="M14.4 9.89194C14.1692 9.89194 13.9846 9.89194 13.8 9.89194C13.7539 9.89194 13.7539 9.84677 13.7539 9.8016C13.7539 9.62093 13.7539 9.48542 13.7539 9.30474C13.7539 8.85306 13.7539 8.40137 13.7539 7.94969C13.7539 7.85935 13.7539 7.85935 13.6616 7.85935C13.5231 7.85935 13.3846 7.85935 13.2923 7.85935C13.2462 7.85935 13.2 7.85935 13.2 7.76901C13.2 7.63351 13.2 7.45283 13.2 7.27216C13.2462 7.27216 13.2462 7.27216 13.2923 7.27216C13.8462 7.27216 14.3539 7.27216 14.9077 7.27216C15 7.27216 15 7.27216 15 7.36249C15 7.498 15 7.63351 15 7.76901C15 7.81418 15 7.85935 14.9077 7.85935C14.7692 7.85935 14.6308 7.85935 14.5385 7.85935C14.4462 7.85935 14.4462 7.90452 14.4462 7.94969C14.4462 8.53688 14.4462 9.16924 14.4462 9.75643C14.4 9.84677 14.4 9.84677 14.4 9.89194Z" fill="#1A578E"/>
<path d="M4.29237 2.61978C5.07699 3.749 5.81545 4.83305 6.60006 5.96226C5.03083 5.96226 3.50776 5.96226 1.98468 5.96226C2.76929 4.83305 3.50776 3.749 4.29237 2.61978Z" fill="#1A578E"/>
</svg>
