<svg width="120" height="33" viewBox="0 0 120 33" xmlns="http://www.w3.org/2000/svg"><title>Group 49</title><desc>Created with Sketch.</desc><path d="M118.366 23.459h-5.891c-.091 1.704.948 3.089 2.582 3.225 1.252.104 2.527-.086 3.927-.152l.338 1.449c-1.29.614-2.629.712-3.982.694-4.267-.055-6.12-3.753-5.014-7.756.821-2.972 3.492-4.494 6.344-3.722 1.851.501 3.029 2.12 3.262 4.481.173 1.752.148 1.781-1.566 1.781zm-3.249-4.715c-1.43.012-2.659 1.373-2.603 2.933 1.519 0 3.039.001 4.56-.001l.483-.032c-.002-1.785-.977-2.912-2.439-2.9h-.001zm.768-11.918c.131 1.54.949 1.904 3.282 1.471l.223.726c-.96.696-3.177.607-4.011-.323-.898-1.002-1.028-2.889-.219-4.076.689-1.011 2.023-1.413 3.14-.946 1.059.443 1.567 1.617 1.305 3.148h-3.72zm1.548-2.421c-.825-.101-1.35.379-1.54 1.469h2.538c.042-.877-.31-1.384-.998-1.469zm-5.572 4.928c0-1.205.028-2.363-.009-3.519-.031-.97-.565-1.41-1.427-1.224-.686.148-.952.655-.958 1.312-.011 1.132-.003 2.265-.003 3.434h-1.255v-8.335h1.232v3.25c.404-.246.707-.5 1.056-.629 1.249-.463 2.471.274 2.606 1.7.125 1.318.027 2.656.027 4.011h-1.269zm-2.7 7.765v2.249l-.145.067c-2.238.028-3.196.986-3.22 3.27-.02 1.9-.004 3.8-.004 5.753h-2.448v-11.129h2.108v1.896c.862-1.388 1.908-2.336 3.709-2.106zm-4.141-9.357c.028.571.267.677 1.141.73.275.868.187.997-.687 1.013-1.15.021-1.72-.533-1.759-1.785-.032-1.009-.006-2.019-.006-3.075l-.774-.074c-.224-.677-.07-1.06.734-.98l.063-1.005 1.188-.384.085 1.362 1.326.093v.917l-1.325.062c0 1.069-.037 2.1.014 3.127v-.001zm-10.557 20.756c-2.214-.655-3.633-2.804-3.637-5.508-.004-2.972 1.593-5.233 4.083-5.784 4.214-.931 7.42 2.153 6.802 6.542-.528 3.75-3.67 5.808-7.248 4.749v.001zm4.003-8.316c-.971-1.792-3.387-1.791-4.402-.026-1.024 1.78-1.038 3.635-.004 5.422.995 1.719 3.29 1.774 4.309.072 1.201-2.294 1.264-3.073.097-5.468zm-1.586-10.863c0-.896.003-1.803-.001-2.709-.001-.321.014-.646-.036-.96-.097-.605-.347-1.078-1.073-1.089-.706-.01-1.161.354-1.249 1.008-.108.801-.078 1.622-.099 2.434-.011.417-.002.835-.002 1.316h-1.225v-5.695h.992l.096.568c.573-.222 1.13-.561 1.721-.641 1.075-.146 1.977.559 2.053 1.646.094 1.346.022 2.704.022 4.121h-1.198l-.001.001zm-8.319.176c-1.631-.01-2.773-1.259-2.743-3.003.031-1.789 1.178-2.983 2.868-2.985 1.677-.002 2.764 1.168 2.753 2.964-.011 1.855-1.134 3.035-2.878 3.025v-.001zm.121-5.057c-.909-.03-1.549.818-1.551 2.053-.001 1.19.609 2.039 1.478 2.055.861.016 1.491-.834 1.502-2.027.012-1.22-.56-2.052-1.43-2.081h.001zm-1.356 10.075v2.71h2.722v1.906h-2.686v2.776c.002.964-.02 1.93.02 2.893.065 1.548.611 1.986 2.175 1.818l.345-.016v1.845c-.948.276-1.931.39-2.926.108-1.151-.326-1.79-1.161-1.901-2.303-.128-1.324-.121-2.662-.148-3.994-.021-1.009-.004-2.019-.004-3.135h-1.595v-1.823l1.532-.079.057-.374c.055-1.648.053-1.649 1.621-2.124l.788-.208zm-8.96 4.822c.886.478 1.85.847 2.65 1.441 2.559 1.898 2.248 5.781-.603 7.204-2.217 1.106-4.523.959-6.796.041-.385-.155-.526-.377-.38-.794.17-.486.295-.987.456-1.542 1.403.776 2.848 1.082 4.381.879 1.474-.194 2.282-1.196 2.118-2.593-.088-.75-.513-1.294-1.131-1.65-.637-.367-1.334-.628-1.99-.964-.656-.336-1.342-.641-1.932-1.073-2.685-1.968-2.244-5.765.832-7.048 2.035-.849 4.08-.655 6.163.18l-.567 1.882c-.969-.177-1.889-.403-2.823-.494-.522-.051-1.1.029-1.592.214-1.474.555-1.754 2.349-.516 3.338.511.408 1.145.663 1.728.978l.002.001zm-1.13-12.537c.014 1.5.822 1.866 3.299 1.52l.149.805c-1.308.492-2.593.637-3.739-.23-1.067-.807-1.17-2-.903-3.231.336-1.549 1.688-2.426 3.208-2.107 1.253.263 1.996 1.637 1.693 3.243h-3.707zm1.268-2.408c-.728.028-1.214.59-1.247 1.477h2.523c-.085-1.051-.504-1.507-1.275-1.477h-.001zm-5.526-3.363h1.209v8.311h-1.209v-8.311zm-6.074 7.582l-.118.715h-1.019v-8.289h1.25v3.22c.391-.238.677-.466 1.002-.601 1.034-.428 2.213-.049 2.758.935.67 1.209.654 2.467-.001 3.68-.684 1.267-2.555 1.826-3.872.34zm2.764-3.333c-.257-.505-.678-.767-1.249-.749-.602.02-1.032.332-1.24.88-.127.335-.138.714-.201 1.074l.056.009c0 .221-.02.445.004.664.076.708.562 1.233 1.188 1.305.735.084 1.285-.245 1.543-.964.268-.747.266-1.497-.101-2.218v-.001zm-1.797 20.954c-1.023 1.982-3.168 2.942-5.307 2.367-.72-.193-1.356-.703-2.069-1.09v5.475h-2.473v-15.727c.564 0 1.127-.033 1.681.021.161.016.383.262.427.439.092.37.084.764.105 1.014.801-.498 1.556-1.187 2.44-1.473 2.247-.727 4.407.283 5.375 2.466.961 2.169.914 4.39-.179 6.507v.001zm-2.183-5.614c-.478-1.074-1.362-1.597-2.525-1.583-1.079.013-2.078.753-2.411 1.859-.202.672-.233 1.395-.341 2.096l.099.014c0 .395-.024.791.004 1.183.089 1.239.953 2.298 2.033 2.521 1.375.284 2.533-.239 3.116-1.509.692-1.508.701-3.061.025-4.581zm-3.617-11.571c-.285.099-.768.358-1.276.425-.906.12-1.614-.352-1.864-1.107-.268-.812.036-1.762.855-2.149.716-.338 1.524-.48 2.328-.72.091-1.102-.596-1.338-2.558-.772-.434-.563-.247-.928.397-1.023.648-.096 1.322-.187 1.965-.111.947.112 1.511.875 1.539 1.965.032 1.232.007 2.465.007 3.938l-1.394-.446h.001zm.113-2.609c-.52.117-1.01.169-1.454.341-.582.226-.722.745-.507 1.285.228.572.72.6 1.237.399.689-.268.87-.727.724-2.026v.001zm-6.495-5.422h1.218v8.327h-1.218v-8.327zm-3.055 1.6c-.284-.08-.64-.489-.656-.768-.015-.26.376-.544.589-.818l.342.014c.184.291.491.569.525.877.055.498-.347.822-.8.695zm-.525 1.044c1.244-.145 1.244-.145 1.245.964v4.711h-1.245v-5.675zm3.703 16.153c.906 2.131.859 4.304-.202 6.38-1.03 2.016-3.199 2.994-5.364 2.398-.702-.193-1.321-.691-2.03-1.078v5.489h-2.462v-15.703h2.045l.169 1.415c.796-.487 1.557-1.171 2.445-1.452 2.292-.727 4.448.311 5.4 2.551h-.001zm-5.008-.781c-1.103.088-2.114.886-2.4 2.01-.162.638-.171 1.315-.249 1.974l.073.008c0 .346-.012.693.002 1.039.054 1.296.886 2.387 1.999 2.636 1.39.31 2.583-.239 3.171-1.546.659-1.467.672-2.979.041-4.461-.481-1.128-1.519-1.749-2.637-1.659v-.001zm-2.159-10.071c-.571.181-1.126.45-1.704.517-.806.094-1.427-.365-1.675-1.056-.272-.758-.084-1.612.596-2.045.48-.306 1.068-.453 1.623-.625.321-.1.671-.107 1.004-.156-.106-1.235-.633-1.405-2.675-.872l-.251-.708c1.001-.576 2.024-.663 3.066-.304.694.239 1.067.822 1.09 1.537.042 1.351.012 2.704.012 4.067-.911.157-.911.157-1.086-.354v-.001zm-.155-2.555c-.594.169-1.15.247-1.627.485-.48.24-.546.752-.322 1.22.227.473.658.541 1.13.391.729-.232.917-.656.819-2.096zm-8.166 18.103c-.133-.452-.329-.627-.816-.615-1.451.034-2.902.012-4.404.012-.401 1.313-.83 2.596-1.174 3.901-.15.568-.405.749-.967.698-.56-.052-1.128-.011-1.826-.011.594-1.852 1.148-3.585 1.705-5.317 1.025-3.191 2.064-6.378 3.063-9.577.159-.508.356-.735.908-.692l1.918.03c.209.016.526.198.583.374 1.613 4.944 3.199 9.897 4.787 14.85l.032.307h-2.561c-.422-1.326-.86-2.635-1.248-3.958v-.002zm-2.748-9.295l-1.994 6.746h4.056l-2.062-6.746zm4.483-6.236c-.087.195-.423.375-.652.385-.271.012-.729-.096-.8-.274-.64-1.603-1.213-3.233-1.803-4.856l-.166-.548c1.265-.224 1.264-.224 1.615.878.352 1.104.706 2.207 1.06 3.309l.085.062 1.052-3.317c.352-1.111.351-1.112 1.62-.951l-1.025 2.76c-.32.855-.617 1.72-.987 2.552h.001zm-5.837-.616c-.546-1.606-.114-1.327-1.677-1.348-1.328-.017-1.328-.004-1.724 1.348-.328 1.12-.328 1.12-1.611.944.813-2.545 1.597-5.037 2.423-7.516.063-.19.422-.408.632-.396.39.022.951-.317 1.154.3.833 2.526 1.641 5.06 2.46 7.599-1.286.235-1.262.227-1.656-.931h-.001zm-1.732-5.808l-1.008 3.468h2.064l-1.056-3.468zm-14.677 13.103c-.033-3.719 3.016-5.528 3.155-5.612-1.727-2.542-4.403-2.889-5.344-2.917-2.248-.239-4.429 1.358-5.574 1.358-1.168 0-2.931-1.335-4.832-1.296-2.446.038-4.734 1.468-5.989 3.688-2.59 4.527-.658 11.178 1.823 14.837 1.241 1.792 2.691 3.793 4.59 3.722 1.857-.077 2.551-1.195 4.792-1.195 2.221 0 2.872 1.195 4.808 1.15 1.993-.032 3.248-1.8 4.446-3.608 1.434-2.054 2.01-4.077 2.033-4.18-.047-.016-3.871-1.49-3.909-5.947zm-3.657-10.936c.999-1.261 1.682-2.977 1.493-4.718-1.446.065-3.254 1.01-4.295 2.243-.921 1.087-1.744 2.868-1.531 4.544 1.624.122 3.291-.827 4.334-2.069z"/></svg>