<svg width="100" height="43" viewBox="0 0 100 43" fill="none" xmlns="http://www.w3.org/2000/svg">
<path fill-rule="evenodd" clip-rule="evenodd" d="M66.9568 25.1204H70.2945C71.386 25.1204 71.7737 24.3884 71.7965 23.3678C72.7219 23.9876 73.1061 25.3705 76.3857 25.3705C78.5807 25.3705 80.4696 24.0705 81.656 22.4631C85.0069 17.9234 83.8722 7.42753 77.2202 7.42753C75.2517 7.42753 74.0085 7.89958 72.5722 9.12159C72.379 9.28636 72.3366 9.3757 72.1301 9.51404V0H66.9568V25.1204ZM75.0246 11.9577C75.0002 11.9575 74.9735 11.9569 74.9484 11.9569C74.4217 11.9569 73.9044 12.0945 73.447 12.355C72.9472 12.6674 72.5005 13.0607 72.1275 13.5171V20.5304C72.4542 20.9135 72.8706 21.2119 73.3379 21.3982C73.7593 21.5609 74.2083 21.6457 74.6607 21.6461C74.6718 21.6461 74.6833 21.6461 74.6942 21.6461C75.1267 21.6461 75.5551 21.5566 75.951 21.3833C76.3609 21.1952 76.7126 20.8972 76.9644 20.5228C77.2822 20.0438 77.5078 19.5071 77.6277 18.9446C77.7869 18.2209 77.8672 17.4793 77.8672 16.738C77.8672 16.6689 77.866 16.5962 77.8647 16.5283C77.8649 16.4772 77.8661 16.4198 77.8661 16.3675C77.8661 15.7131 77.8037 15.0589 77.6826 14.4172C77.5903 13.9158 77.406 13.434 77.1398 12.9992C76.925 12.6536 76.6148 12.3766 76.2471 12.2019C75.8814 12.0408 75.4854 11.957 75.0855 11.957C75.0652 11.957 75.0445 11.9574 75.0246 11.9577Z" fill="#F48037"/>
<path fill-rule="evenodd" clip-rule="evenodd" d="M43.4259 9.43056C43.1705 8.89802 43.1886 7.6779 41.924 7.6779H38.6699V25.1202H43.8432V12.6854C43.8432 11.8657 48.5994 9.45418 48.5994 14.1876V25.1202H53.7729V14.1876C53.7729 13.3142 53.9849 12.6758 54.3528 12.1805C55.2352 10.9917 58.4456 10.7422 58.4456 13.7703V25.1202H63.4522C63.6444 25.1202 63.7025 25.0621 63.7025 24.8699V14.6883C63.7025 11.8 63.0265 9.1702 60.5888 8.03804C57.9413 6.80855 53.9175 7.335 52.1943 10.0215C52.0226 10.2893 52.1922 10.1616 51.9371 10.3486C51.835 9.90972 51.6271 9.57776 51.3892 9.22737C51.2366 9.00264 51.1678 8.96162 51.0093 8.77287C49.5854 7.07776 46.7402 7.11479 45.1609 8.07784C44.0474 8.75689 43.8894 9.12014 43.4259 9.43056Z" fill="#F48037"/>
<path fill-rule="evenodd" clip-rule="evenodd" d="M21.0635 10.0149C21.0767 10.1759 22.128 12.6852 23.3997 12.6852C24.4907 12.6852 24.8683 12.2909 25.5669 11.932C27.4596 10.9595 30.3254 10.8938 30.3254 14.0206V14.9386C27.7636 14.9386 25.5213 15.3742 23.6847 16.1417C23.2078 16.3409 22.84 16.5341 22.4304 16.8067C22.08 17.0402 21.5952 17.4096 21.3378 17.7169C19.0537 20.4404 20.2968 25.3705 25.2355 25.3705C27.6869 25.3705 28.6208 24.8771 30.3622 23.5716C30.6076 23.3876 30.6933 23.2623 30.9096 23.1173C31.0007 23.5082 31.3063 24.2123 31.5058 24.5239C32.0579 25.3856 33.9594 25.1204 35.4154 25.1204V14.4379C35.4154 11.5692 34.1028 8.92951 31.6506 7.9383C29.8452 7.20867 28.0529 7.21075 26.1455 7.58669C24.3466 7.94125 22.8627 8.62447 21.471 9.75489C21.248 9.936 21.3584 9.93601 21.0635 10.0149ZM26.6262 22.1961C26.657 22.1963 26.6891 22.1968 26.7206 22.1968C27.3583 22.1968 27.9898 22.0632 28.5727 21.8054C29.2089 21.486 29.7841 21.0543 30.2689 20.5332V17.8608C29.3197 17.8896 28.3659 17.9882 27.431 18.1569C26.8224 18.2628 26.2262 18.4514 25.6671 18.7145C25.3029 18.8787 24.991 19.1424 24.7684 19.4742C24.6064 19.7507 24.5207 20.0662 24.5207 20.3869C24.5207 20.3921 24.5207 20.3969 24.5207 20.4021C24.5152 20.4588 24.5119 20.5155 24.5119 20.5725C24.5119 21.0364 24.7114 21.4787 25.0596 21.7851C25.4815 22.0566 25.9742 22.201 26.4762 22.201C26.5268 22.201 26.5784 22.1994 26.6285 22.1967L26.6262 22.1961Z" fill="#F48037"/>
<path fill-rule="evenodd" clip-rule="evenodd" d="M85.648 10.0982C87.1762 12.3807 86.9793 13.5817 90.2371 11.9341C92.146 10.9682 94.9101 10.9663 94.9101 13.7703V14.9386C91.7085 14.9386 88.1452 15.5892 86.0852 17.6294C83.9764 19.718 84.1681 25.3705 90.2372 25.3705C93.108 25.3705 93.9893 24.1812 95.5777 23.1173C95.6069 23.471 95.9726 24.3188 96.1453 24.5524C96.7433 25.3608 98.6696 25.1204 100 25.1204V13.6869C100 12.3988 99.4804 11.0035 98.8169 10.0297C98.6301 9.75542 98.3005 9.33464 98.0617 9.11582C95.1103 6.41195 90.1597 7.11534 87.1327 8.99607C86.5643 9.34907 86.1627 9.75332 85.648 10.0982ZM91.1054 22.1961C91.1363 22.1963 91.1685 22.1968 91.1998 22.1968C91.8376 22.1968 92.4691 22.0632 93.0521 21.8054C93.6881 21.486 94.2633 21.0543 94.7483 20.5332V17.8608C93.7991 17.8896 92.8453 17.9882 91.9104 18.1569C91.3016 18.2628 90.7056 18.4514 90.1464 18.7145C89.7821 18.8787 89.4702 19.1424 89.2476 19.4742C89.0857 19.7507 89.0001 20.0662 89.0001 20.3868C89.0001 20.3921 89.0001 20.3969 89.0001 20.4021C88.9944 20.4588 88.9911 20.5155 88.9911 20.5725C88.9911 21.0363 89.1908 21.4787 89.5388 21.7851C89.9608 22.0566 90.4534 22.201 90.9555 22.201C91.006 22.201 91.0576 22.1994 91.1077 22.1967L91.1054 22.1961Z" fill="#F48037"/>
<path fill-rule="evenodd" clip-rule="evenodd" d="M4.90194 30.8004C-2.77045 32.2122 -1.06831 44.2348 7.44307 42.7265C14.9377 41.3983 13.3991 29.2369 4.90194 30.8004ZM5.45038 33.5034C1.89093 34.3763 2.75459 40.9558 6.8147 40.0154C10.3305 39.2007 9.57479 32.4919 5.45038 33.5034Z" fill="#F48037"/>
<path fill-rule="evenodd" clip-rule="evenodd" d="M37.7736 41.1925L36.5185 39.3069C35.4902 39.78 34.5725 40.6522 32.629 40.3247C31.2871 40.0986 30.2839 39.1341 30.1148 37.7357L38.643 37.7324C39.3924 30.0352 30.1548 28.3722 27.476 34.0141C25.5309 38.1111 28.1836 43.3074 33.8744 42.7896C35.3703 42.6535 37.0858 42.0834 37.7736 41.1925ZM30.0578 35.6601L35.6831 35.6636C35.3448 32.2305 30.4523 32.2743 30.0578 35.6601Z" fill="#F48037"/>
<path fill-rule="evenodd" clip-rule="evenodd" d="M17.5444 32.2966L17.5279 31.0189L14.4574 30.9725C14.4574 34.22 14.4839 34.22 14.4839 34.22L14.4842 42.4723L17.5305 42.5268C17.5528 40.6037 17.5347 38.7275 17.5345 36.8608C17.5342 35.798 17.3218 34.9121 17.958 34.3401C18.4255 33.9197 19.0846 33.49 19.9502 33.4383C22.2941 33.2975 22.2706 34.7201 22.2689 36.7294C22.2673 38.6685 22.2527 40.6158 22.2734 42.5543L25.3369 42.5565C25.3525 40.4681 25.6799 33.8172 24.9332 32.4055C23.727 30.125 20.3148 30.2952 18.4084 31.6397C17.9601 31.9561 18.0253 32.0558 17.5444 32.2966Z" fill="#F48037"/>
<path fill-rule="evenodd" clip-rule="evenodd" d="M6.1446 9.14564C6.06935 8.2422 5.67488 7.23693 4.58304 7.23693H1.1998V25.3706L7.41629 25.3652L7.41091 17.475H4.75648V14.6118C5.98073 14.5099 7.78034 13.1791 8.053 12.0089H11.6966V25.1102C11.6966 25.3101 11.7569 25.3706 11.9569 25.3706H17.5089V13.484C17.5089 11.6974 16.8202 9.90794 15.9685 8.95097C14.5415 7.34746 13.271 6.97657 11.0025 6.97657C10.0155 6.97657 8.8748 7.33443 8.22401 7.6683C7.89522 7.83689 7.45053 8.10716 7.16484 8.34405L6.1446 9.14564Z" fill="#F48037"/>
</svg>
