<svg width="16" height="10" viewBox="0 0 16 10" fill="none" xmlns="http://www.w3.org/2000/svg">
<path d="M10.1632 8.93077H5.83679V1.06886H10.1632V8.93077Z" fill="#6C6BBD"/>
<path d="M6.1114 5C6.1114 3.40518 6.84986 1.98455 7.99983 1.06905C7.15889 0.399581 6.09756 0 4.94413 0C2.2135 0 0 2.23854 0 5C0 7.76146 2.2135 10 4.94413 10C6.09756 10 7.15889 9.60042 7.99983 8.93096C6.84986 8.01545 6.1114 6.59482 6.1114 5Z" fill="#D32011"/>
<path d="M16 5C16 7.76146 13.7865 10 11.0559 10C9.90246 10 8.84114 9.60042 7.99988 8.93096C9.15017 8.01545 9.88863 6.59482 9.88863 5C9.88863 3.40518 9.15017 1.98455 7.99988 1.06905C8.84114 0.399581 9.90246 0 11.0559 0C13.7865 0 16 2.23854 16 5Z" fill="#0099DF"/>
</svg>
