<svg width="100" height="43" viewBox="0 0 100 43" fill="none" xmlns="http://www.w3.org/2000/svg">
<path d="M77.6659 42.8634C87.415 42.8634 95.3179 34.8506 95.3179 24.968C95.3179 15.0827 87.415 7.0708 77.6659 7.0708C67.9168 7.0708 60.0139 15.0835 60.0139 24.9671C60.0139 34.8506 67.9177 42.8634 77.6659 42.8634Z" fill="#FFCD00"/>
<path d="M65.4704 7.05725C67.3925 7.05725 68.9502 5.47756 68.9502 3.52907C68.9502 1.57969 67.3925 0 65.4704 0C63.5482 0 61.9896 1.58058 61.9896 3.52907C61.9896 5.47756 63.5482 7.05725 65.4704 7.05725Z" fill="#FFF1B8"/>
<path d="M79.848 28.7771C79.2951 29.2674 78.5912 29.5183 77.749 29.5183C76.6432 29.5183 75.7875 29.1129 75.1936 28.2869C74.5996 27.4743 74.3093 26.2419 74.3093 24.5899V24.0443C74.3093 22.4057 74.613 21.1868 75.207 20.3893C75.8009 19.591 76.6432 19.1847 77.7347 19.1847C78.5912 19.1847 79.2951 19.4651 79.848 20.025C80.4008 20.5849 80.6902 21.3136 80.7322 22.1815H83.9227C83.8673 20.459 83.2867 19.0731 82.1542 18.0086C81.0216 16.9585 79.572 16.4263 77.7758 16.4263C75.6625 16.4263 74.0056 17.1407 72.7766 18.5266C71.5467 19.9134 70.9393 21.7752 70.9393 24.0997V24.4497C70.9393 26.8867 71.561 28.7905 72.79 30.1773C74.019 31.5632 75.6902 32.249 77.7901 32.249C78.8454 32.2571 79.8873 32.0125 80.8287 31.5355C81.7674 31.0596 82.4998 30.4148 83.0527 29.5888C83.5803 28.7979 83.8812 27.8776 83.9227 26.9278H80.7322C80.7215 27.2804 80.6374 27.627 80.4851 27.9452C80.3329 28.2635 80.1159 28.5466 79.848 28.7762V28.7771ZM71.6575 35.0503H83.7003V37.4873H71.6575V35.0494V35.0503Z" fill="white"/>
<path d="M36.6438 31.9686H33.2595V10.3066H36.6438V31.9686Z" fill="black"/>
<path fill-rule="evenodd" clip-rule="evenodd" d="M0 11.4409V31.9688H7.4036C9.66871 31.9688 11.4229 31.4509 12.6377 30.4151C13.8533 29.3792 14.4615 27.9084 14.4615 25.976C14.4615 24.8134 14.1579 23.8061 13.5639 22.9792C12.9565 22.1532 12.1134 21.579 11.0219 21.2852C11.9892 20.8655 12.7207 20.2904 13.2182 19.5349C13.7157 18.792 13.964 17.9383 13.964 16.9997C13.964 15.1513 13.3701 13.7654 12.1687 12.8411C10.9665 11.9035 9.22659 11.4409 6.93378 11.4409H0ZM6.97576 20.0805H3.52093V14.3119H6.94629C8.14851 14.3119 9.04527 14.5351 9.61244 14.9834C10.1787 15.4317 10.469 16.1737 10.469 17.1819C10.469 18.1062 10.1653 18.8205 9.54367 19.3251C8.92201 19.8287 8.06545 20.0805 6.97398 20.0805H6.97576ZM3.52093 29.0845V22.6997H7.70818C9.86253 22.755 10.9397 23.8338 10.9397 25.9617C10.9397 26.9422 10.636 27.712 10.0144 28.2585C9.39272 28.8041 8.53705 29.0845 7.43218 29.0845H3.52182H3.52093ZM26.2426 30.5401C26.3534 31.1991 26.4775 31.675 26.6294 31.9688H30.069V31.7313C29.6957 30.9044 29.5028 29.8123 29.5028 28.4407V21.5647C29.4751 19.9403 28.9365 18.6803 27.8861 17.7838C26.8366 16.8881 25.4423 16.4398 23.6738 16.4398C22.5136 16.4398 21.4641 16.6363 20.5245 17.056C19.5714 17.4623 18.8399 18.0365 18.287 18.7643C17.7485 19.4921 17.4725 20.2761 17.4725 21.1164H20.8558C20.8558 20.5145 21.0907 20.0243 21.5883 19.6323C22.0858 19.2402 22.7074 19.0447 23.4809 19.0447C24.3652 19.0447 25.0279 19.2822 25.4691 19.7591C25.8979 20.2207 26.1185 20.8646 26.1185 21.6486V22.6434H24.0463C21.8366 22.6434 20.1243 23.0774 18.9364 23.9454C17.7485 24.8134 17.1545 26.06 17.1545 27.6843C17.1545 28.972 17.6377 30.065 18.5907 30.933C19.5438 31.8152 20.788 32.2492 22.293 32.2492C23.8534 32.2492 25.1655 31.6751 26.2426 30.541V30.5401ZM24.793 29.0149C24.2124 29.3363 23.5774 29.5042 22.9146 29.5042C22.1956 29.5042 21.6159 29.3077 21.1738 28.9166C20.7451 28.5237 20.5245 28.0058 20.5245 27.3485C20.5245 26.5359 20.8424 25.9198 21.4775 25.4715C22.0992 25.0375 23.0388 24.8134 24.2955 24.8134H26.1185V27.6843C25.8228 28.2527 25.3603 28.717 24.793 29.0149ZM48.9224 30.5401C49.0331 31.1991 49.1573 31.675 49.3091 31.9688H52.7621V31.7313C52.3897 30.9044 52.1959 29.8123 52.1959 28.4407V21.5647C52.1691 19.9403 51.6296 18.6803 50.5792 17.7838C49.5306 16.8881 48.1355 16.4398 46.367 16.4398C45.2067 16.4398 44.1572 16.6363 43.2185 17.056C42.2655 17.4623 41.533 18.0365 40.9811 18.7643C40.4416 19.4921 40.1656 20.2761 40.1656 21.1164H43.5356C43.5356 20.5145 43.7705 20.0243 44.268 19.6323C44.7655 19.2402 45.3862 19.0447 46.1597 19.0447C47.044 19.0447 47.7067 19.2822 48.1489 19.7591C48.5776 20.2207 48.7982 20.8646 48.7982 21.6486V22.6434H46.726C44.5163 22.6434 42.804 23.0774 41.6161 23.9454C40.4282 24.8134 39.8342 26.06 39.8342 27.6843C39.8342 28.972 40.3174 30.065 41.2704 30.933C42.2235 31.8152 43.4668 32.2492 44.9718 32.2492C46.5331 32.2492 47.8452 31.6751 48.9224 30.541V30.5401ZM47.4861 29.0149C46.9055 29.3363 46.2714 29.5042 45.6077 29.5042C44.8753 29.5042 44.2948 29.3077 43.8812 28.9166C43.4525 28.5237 43.2319 28.0058 43.2319 27.3485C43.2319 26.5359 43.5356 25.9198 44.1715 25.4715C44.7932 25.0375 45.7319 24.8134 46.9886 24.8134H48.8125V27.6843C48.5166 28.2528 48.0537 28.7171 47.4861 29.0149Z" fill="black"/>
<path d="M58.8671 16.7062L58.9645 18.4707C60.0827 17.1125 61.5333 16.4258 63.342 16.4258C66.477 16.4258 68.0669 18.2466 68.1214 21.8873V31.9691H64.7514V22.0837C64.7514 21.1166 64.5442 20.4031 64.1298 19.9263C63.7153 19.4646 63.0383 19.2262 62.1129 19.2262C60.7464 19.2262 59.7371 19.8566 59.0609 21.1032V31.9557H55.6766V16.7062H58.8671Z" fill="black"/>
<path fill-rule="evenodd" clip-rule="evenodd" d="M87.9 30.2053C89.2264 31.5626 90.9663 32.2493 93.1073 32.2493C94.3649 32.2493 95.4831 31.9975 96.4915 31.5215C97.4714 31.0382 98.3054 30.3036 98.9085 29.3927L97.0855 27.6281C96.1048 28.9024 94.8481 29.5329 93.3011 29.5329C92.1962 29.5329 91.2843 29.1542 90.5518 28.4265C89.8203 27.6987 89.4059 26.7039 89.3094 25.4439H99.1434V24.0571C99.1434 21.6353 98.5905 19.7583 97.4722 18.4286C96.3531 17.0981 94.765 16.4399 92.7205 16.4399C91.4227 16.4399 90.2625 16.7614 89.213 17.4338C88.1626 18.1063 87.348 19.0305 86.7674 20.2351C86.1869 21.4389 85.8975 22.798 85.8975 24.3232V24.7429C85.8975 27.012 86.5745 28.8328 87.9 30.2053ZM90.4554 20.1646C91.036 19.5207 91.7818 19.1841 92.7071 19.1841C93.6458 19.1841 94.3783 19.4645 94.9034 20.053C95.4277 20.6405 95.7314 21.5085 95.8011 22.6569V22.9096H89.3648C89.5167 21.7327 89.8891 20.8227 90.4554 20.1646Z" fill="black"/>
</svg>
