<svg xmlns="http://www.w3.org/2000/svg" viewBox="0 0 16.25 18" width="18px" height="18px"><path fill="#e5097f" d="M6.9 4.77a2.42 2.42 0 0 0-1.9.8 2.91 2.91 0 0 0-.69 2 2.91 2.91 0 0 0 .69 2 2.42 2.42 0 0 0 1.94.8 2.42 2.42 0 0 0 1.95-.8 2.92 2.92 0 0 0 .68-2 2.92 2.92 0 0 0-.68-2 2.42 2.42 0 0 0-1.99-.8zm-6.9-4.77v15h2.7v3l4.41-4.4-.89 1.4h10v-15zm10.89 9.16a4.49 4.49 0 0 1-.79 1.39 3.62 3.62 0 0 1-1.34 1 4.56 4.56 0 0 1-1.86.37 4.6 4.6 0 0 1-1.9-.39 3.56 3.56 0 0 1-1.34-1 4.55 4.55 0 0 1-.78-1.39 5 5 0 0 1 0-3.24 4.55 4.55 0 0 1 .78-1.39 3.56 3.56 0 0 1 1.34-.96 4.6 4.6 0 0 1 1.9-.37 4.56 4.56 0 0 1 1.86.37 3.62 3.62 0 0 1 1.34 1 4.49 4.49 0 0 1 .79 1.39 5 5 0 0 1 0 3.24zm2.89 2.74h-1.43v-1.41h1.43zm-.12-2.47h-1.2l-.1-6.09h1.42z"/></svg>