<svg xmlns="http://www.w3.org/2000/svg" viewBox="0 0 27.86 9"><defs><style>.cls-1{fill:#1a1f71;}</style></defs><title>Ресурс 2</title><path class="cls-1" d="M10.58.16l-3.65 8.7h-2.38l-1.79-6.94a1 1 0 0 0-.53-.76 9.42 9.42 0 0 0-2.23-.75l.05-.25h3.83a1 1 0 0 1 1 .89l.95 5 2.38-5.89zm3.22 0l-1.86 8.7h-2.26l1.86-8.7zm6.1 5.84c0-2.3-3.17-2.42-3.15-3.45 0-.31.3-.64 1-.73a4.25 4.25 0 0 1 2.22.39l.35-1.83a6.07 6.07 0 0 0-2.11-.38c-2.21 0-3.79 1.18-3.8 2.88 0 1.25 1.12 2 2 2.37s1.17.7 1.17 1.08c0 .58-.7.84-1.35.85a4.7 4.7 0 0 1-2.31-.55l-.41 1.91a6.83 6.83 0 0 0 2.49.46c2.37 0 3.91-1.17 3.92-3zm5.88 2.84h2.08l-1.86-8.68h-1.88a1 1 0 0 0-1 .64l-3.34 8.06h2.36l.47-1.3h2.89zm-2.51-3.06l1.19-3.27.68 3.27z" id="Слой_1-2"/></svg>