<svg xmlns="http://www.w3.org/2000/svg" viewBox="0 0 17.95 17.95" width="18px" height="18px"><defs><style>.cls-1,.cls-2{fill-rule:evenodd;}.cls-1{fill:url(#linear-gradient);}.cls-2{fill:#262424;}</style><linearGradient id="linear-gradient" y1="8.98" x2="17.95" y2="8.98" gradientUnits="userSpaceOnUse"><stop offset="0" stop-color="#c58f47"/><stop offset=".1" stop-color="#e8ad41"/><stop offset=".3" stop-color="#eec042"/><stop offset=".45" stop-color="#f6d643"/><stop offset=".65" stop-color="#fff145"/><stop offset=".73" stop-color="#f9e745"/><stop offset=".88" stop-color="#e8cb46"/><stop offset="1" stop-color="#d7af46"/></linearGradient></defs><title>beeline</title><g id="Слой_1-2"><path class="cls-1" d="M9 0a9 9 0 1 1-9 9 9 9 0 0 1 9-9z"/><path class="cls-2" d="M2.26 3a80.43 80.43 0 0 1 13.44 0 9 9 0 0 0-13.44 0zm13.52 11.83a91.41 91.41 0 0 1-13.61 0 9 9 0 0 0 13.61 0zm-15.49-8.13c5.84-.1 11.53-.12 17.37 0a9.06 9.06 0 0 1 .07 4.3c-5.9.14-11.73.09-17.51 0a9 9 0 0 1-.22-2 8.93 8.93 0 0 1 .29-2.3z"/></g></svg>