<?xml version="1.0" encoding="utf-8"?>
<!-- Generator: Adobe Illustrator 21.0.0, SVG Export Plug-In . SVG Version: 6.00 Build 0)  -->
<svg version="1.1" id="Layer_1" xmlns="http://www.w3.org/2000/svg" xmlns:xlink="http://www.w3.org/1999/xlink" x="0px" y="0px"
	 viewBox="0 0 18 18" style="enable-background:new 0 0 18 18;" xml:space="preserve">
<style type="text/css">
	.st0{clip-path:url(#SVGID_2_);fill:#0000FF;}
	.st1{clip-path:url(#SVGID_2_);fill:#FFFFFF;}
	.st2{clip-path:url(#SVGID_2_);fill:#FF0013;}
</style>
<title>icon--en</title>
<g>
	<g>
		<defs>
			<ellipse id="SVGID_1_" cx="9" cy="8.9" rx="9" ry="9"/>
		</defs>
		<clipPath id="SVGID_2_">
			<use xlink:href="#SVGID_1_"  style="overflow:visible;"/>
		</clipPath>
		<rect x="0" y="-0.4" class="st0" width="17.9" height="17.9"/>
		<polyline class="st1" points="-1.8,3.6 18.7,16.5 20,14.3 -0.4,1.5 		"/>
		<polyline class="st1" points="19.3,0.9 -2.1,14.3 -0.7,16.4 20.6,3 		"/>
		<polyline class="st2" points="-1.4,3.1 19,15.9 19.7,14.9 -0.8,2 		"/>
		<polyline class="st2" points="19.3,1.6 -1.7,14.8 -1.1,15.9 20,2.7 		"/>
		<polyline class="st1" points="5.9,-1.3 5.9,18.2 12.2,18.2 12.2,-1.3 		"/>
		<polyline class="st1" points="18.3,5.7 -0.3,5.7 -0.3,12 18.3,12 		"/>
		<polyline class="st2" points="7.3,-1.3 7.3,18.2 10.7,18.2 10.7,-1.3 		"/>
		<polyline class="st2" points="18.3,7.2 -0.3,7.2 -0.3,10.6 18.3,10.6 		"/>
	</g>
</g>
</svg>
