<svg width="193" height="61" xmlns="http://www.w3.org/2000/svg">
 <!-- Created with Method Draw - http://github.com/duopixel/Method-Draw/ -->

 <g>
  <title>background</title>
  <rect fill="none" id="canvas_background" height="63" width="195" y="-1" x="-1"/>
  <g display="none" overflow="visible" y="0" x="0" height="100%" width="100%" id="canvasGrid">
   <rect fill="url(#gridpattern)" stroke-width="0" y="0" x="0" height="100%" width="100%"/>
  </g>
 </g>
 <g>
  <title>Layer 1</title>
  <g id="svg_14">
   <path id="svg_4" fill="#FD384C" d="m26.36326,0.40414c-6.64858,0 -12.03835,5.38976 -12.03835,12.03835l0,30.09586c0,6.64855 5.38976,12.03835 12.03835,12.03835c6.64855,0 12.03835,-5.3898 12.03835,-12.03835l0,-1.03276l15.52665,15.52665c2.18133,2.20069 5.20641,3.56363 8.55004,3.56363c6.64855,0 12.03835,-5.3898 12.03835,-12.03835l0,-30.09586c0,-6.64855 -5.3898,-12.03831 -12.03835,-12.03831c-6.64855,0 -12.03835,5.38976 -12.03835,12.03831l0,1.03276l-15.56009,-15.5603c-0.55933,-0.55926 -1.15983,-1.05202 -1.79202,-1.47822c-1.92015,-1.29546 -4.23419,-2.05176 -6.72458,-2.05176zm-4.2357,7.80233c-2.34625,2.34628 -2.34625,6.15019 0,8.49661l36.0722,36.07209c2.34607,2.34642 6.15012,2.34642 8.49654,0c2.34642,-2.34607 2.34642,-6.15012 0,-8.49654l-36.07209,-36.07216c-2.34642,-2.34625 -6.15036,-2.34625 -8.49664,0zm9.43542,31.34658c0.52096,-0.89091 0.81945,-1.92754 0.81945,-3.03387c0,-3.32427 -2.6949,-6.01917 -6.01917,-6.01917c-3.32445,0 -6.01931,2.6949 -6.01931,6.01917c0,1.10563 0.29814,2.14191 0.8184,3.03211l3.86339,8.22233l0.00348,0c0.25537,0.4671 0.75131,0.7839 1.32137,0.7839c0.56989,0 1.06585,-0.3168 1.32105,-0.7839l0.00669,0l3.88465,-8.22057zm30.97797,-27.48967c-0.67126,0 -1.23974,0.43929 -1.43369,1.04614l-1.65897,3.51752l-4.0427,0.7311c-0.63641,0.02992 -1.20806,0.46569 -1.38195,1.11407c-0.13904,0.5199 0.01162,1.04966 0.35376,1.41644l-0.00035,0.0007l0.00352,0.00282c0.07674,0.08166 0.16262,0.15523 0.25731,0.21859l2.70581,2.30066l-0.82931,3.95928c-0.2112,0.60121 -0.02253,1.29465 0.51286,1.69945c0.42944,0.32454 0.97715,0.38368 1.44566,0.20486l0.00035,0.00035l0.00387,-0.00211c0.10454,-0.04048 0.20522,-0.09258 0.29955,-0.15629l3.7421,-1.95183l3.7421,1.95183c0.09469,0.06371 0.19501,0.11581 0.29955,0.15629l0.00387,0.00211l0.0007,-0.00035c0.46851,0.17882 1.01587,0.11968 1.44566,-0.20486c0.53539,-0.4048 0.72406,-1.09824 0.51286,-1.69945l-0.83846,-4.00257l2.65442,-2.25737c0.09469,-0.06336 0.18093,-0.13693 0.25731,-0.21859l0.00352,-0.00282l0,-0.0007c0.34179,-0.36678 0.4928,-0.89654 0.35341,-1.41644c-0.17389,-0.64838 -0.74553,-1.08416 -1.38195,-1.11407l-3.91352,-0.70787l-1.69311,-3.56962c-0.03696,-0.10806 -0.08554,-0.21014 -0.14467,-0.30518l-0.00211,-0.00422l-0.00035,0c-0.26611,-0.42521 -0.73849,-0.70787 -1.27705,-0.70787z" clip-rule="evenodd" fill-rule="evenodd"/>
   <path id="svg_5" fill="#59656B" d="m96.6144,19.06463l-4.78119,-5.79953c-0.7054,-0.836 -1.33231,-1.20172 -2.19471,-1.20172c-1.88108,0 -3.10885,1.27987 -3.10885,3.21304l0,11.41636c0,1.33231 0.13059,1.88073 0.62691,2.56008c0.54877,0.73145 1.43721,1.14927 2.35135,1.14927c0.91449,0 1.75049,-0.39177 2.27321,-1.07078c0.52237,-0.65331 0.67936,-1.22812 0.67936,-2.3774l0,-3.78821l4.78084,6.03466c0.65331,0.80995 1.41081,1.20172 2.35135,1.20172c0.91449,0 1.77689,-0.39177 2.3253,-1.09718c0.52272,-0.679 0.65331,-1.27987 0.65331,-2.71672l0,-11.02424c0,-1.14963 -0.20909,-1.77654 -0.7054,-2.3774c-0.57481,-0.67936 -1.38476,-1.09718 -2.27321,-1.09718c-0.96659,0 -1.90713,0.49632 -2.42949,1.30627c-0.41817,0.62691 -0.54877,1.14927 -0.54877,2.351l0,3.31794z"/>
   <path id="svg_6" fill="#59656B" d="m110.06918,27.92056l5.53905,0c0.86204,1.85468 1.64594,2.48159 3.05675,2.48159c1.67199,0 3.00431,-1.30591 3.00431,-2.95186c0,-0.41817 -0.13059,-0.99264 -0.36573,-1.43686l-5.66929,-12.09537c-0.54877,-1.14963 -1.59385,-1.82863 -2.79557,-1.82863c-1.22777,0 -2.24681,0.679 -2.76952,1.75014l-5.61719,12.01723c-0.23513,0.52237 -0.36573,1.07113 -0.36573,1.56745c0,1.67199 1.28022,2.97791 2.92616,2.97791c1.41081,0 2.29925,-0.73145 3.05675,-2.48159zm0.97257,-4.31057l1.7709,-4.8699l1.823,4.8699l-3.5939,0z" clip-rule="evenodd" fill-rule="evenodd"/>
   <path id="svg_7" fill="#59656B" d="m133.34895,20.08331l-2.69103,-5.98256c-0.52237,-1.22777 -1.69804,-2.01132 -2.97826,-2.01132c-0.67936,0 -1.35871,0.23513 -1.88108,0.73145c-0.60121,0.52237 -0.8624,1.07113 -1.04508,2.06377l-2.03807,11.54696c-0.02605,0.23478 -0.0521,0.49632 -0.0521,0.73145c0,1.90678 1.22777,3.23909 2.97826,3.23909c1.5678,0 2.69103,-1.04473 2.97861,-2.76917l0.49632,-3.75582l1.20172,4.0955c0.60086,1.64594 1.59385,2.42949 3.03071,2.42949c1.41081,0 2.45589,-0.836 3.05675,-2.45554l1.14963,-4.06945l0.67936,4.25249c0.23513,1.35836 1.43686,2.2725 2.95221,2.2725c1.59385,0 2.92616,-1.25382 2.92616,-2.84732c0,-0.36573 -0.02605,-0.65331 -0.10454,-1.04508l-2.06412,-11.6251c-0.15664,-0.96659 -0.44387,-1.51535 -0.91414,-1.98562c-0.54877,-0.49632 -1.33267,-0.8096 -2.06412,-0.8096c-1.09718,0 -2.19471,0.65296 -2.61253,1.5935l-3.00466,6.40039z"/>
   <path id="svg_8" fill="#59656B" d="m148.9453,12.22002c-1.77654,0 -3.0828,1.30627 -3.0828,3.0564l0.02605,0.88844l0,10.21429c0,1.17567 0,1.38476 0.05245,1.5935c0.07814,0.49632 0.36573,1.04508 0.73145,1.41081c0.62691,0.7054 1.20172,0.88809 2.53439,0.88809l4.75479,0c2.3253,0 3.1092,-0.23513 4.33697,-1.33231c1.17567,-1.04473 1.80294,-2.45554 1.80294,-4.02299c0,-1.69804 -0.54877,-2.92581 -1.95958,-4.28417c0.62691,-1.12358 0.80995,-1.75049 0.80995,-2.76917c0,-1.77654 -0.7839,-3.44853 -2.11621,-4.46721c-1.22812,-0.94054 -2.22076,-1.17567 -5.35601,-1.17567l-2.53439,0zm1.73465,4.19653l2.64703,0c0.77968,0 1.41187,0.63184 1.41187,1.41151c0,0.78003 -0.63219,1.41187 -1.41187,1.41187l-2.64703,0l0,-2.82338zm2.64703,6.35322l-2.64703,0l0,2.82338l2.64703,0c0.77968,0 1.41187,-0.63184 1.41187,-1.41151c0,-0.78003 -0.63219,-1.41187 -1.41187,-1.41187z" clip-rule="evenodd" fill-rule="evenodd"/>
   <path id="svg_9" fill="#59656B" d="m92.46046,42.06843l3.00431,0c1.09753,0 1.72444,-0.20874 2.22076,-0.65296c0.60086,-0.52237 0.99299,-1.38476 0.99299,-2.19436c0,-0.94054 -0.52272,-1.82863 -1.30627,-2.27285c-0.70576,-0.41817 -1.07148,-0.47027 -3.00466,-0.47027l-3.57947,0c-1.80258,0 -2.3253,0.0785 -2.97826,0.52237c-0.94054,0.62726 -1.28022,1.43686 -1.28022,3.03035l0,10.42373c0,1.64559 0.0521,2.03772 0.36573,2.66463c0.47027,0.94054 1.48931,1.5414 2.56044,1.5414c1.04508,0 2.03772,-0.52272 2.53439,-1.38476c0.41782,-0.7054 0.47027,-1.07113 0.47027,-2.79522l0,-0.91132c0.0081,0 0.01654,0 0.02499,0l2.50376,0c1.55759,0 2.81986,-1.26262 2.81986,-2.81986c0,-1.55724 -1.26227,-2.81986 -2.81986,-2.81986l-2.50376,0c-0.00845,0 -0.0169,0 -0.02499,0l0,-1.86102z"/>
   <path id="svg_10" fill="#59656B" d="m109.16173,35.98167c-5.19902,0 -9.50994,4.17963 -9.48389,9.2741c0,5.4074 4.15429,9.69192 9.4318,9.69192c5.30356,0 9.58844,-4.25812 9.58844,-9.50924c0,-5.25076 -4.25883,-9.45679 -9.53634,-9.45679zm0,5.95617c1.95958,0 3.57947,1.5935 3.57947,3.50062c0,1.95922 -1.59385,3.55307 -3.57947,3.55307c-1.95922,0 -3.55307,-1.6199 -3.55307,-3.60517c0,-1.88108 1.64594,-3.44853 3.55307,-3.44853z" clip-rule="evenodd" fill-rule="evenodd"/>
   <path id="svg_11" fill="#59656B" d="m129.39038,35.98167c-5.19902,0 -9.50994,4.17963 -9.48389,9.2741c0,5.4074 4.15429,9.69192 9.4318,9.69192c5.30356,0 9.58844,-4.25812 9.58844,-9.50924c0,-5.25076 -4.25883,-9.45679 -9.53634,-9.45679zm0,5.95617c1.95958,0 3.57947,1.5935 3.57947,3.50062c0,1.95922 -1.59385,3.55307 -3.57947,3.55307c-1.95958,0 -3.55307,-1.6199 -3.55307,-3.60517c0,-1.88108 1.64594,-3.44853 3.55307,-3.44853z" clip-rule="evenodd" fill-rule="evenodd"/>
   <path id="svg_12" fill="#59656B" d="m147.71189,36.47799l-3.63157,0c-1.28022,0 -2.16866,0.36573 -2.76952,1.07113c-0.54877,0.7054 -0.62691,1.01868 -0.62691,3.00431l0,9.92706c0,1.72409 0.07814,2.14226 0.44387,2.71672c0.67936,1.01904 1.48931,1.33231 3.42283,1.33231l2.50799,0c3.39643,0 5.4081,-0.65296 7.31558,-2.40309c1.82863,-1.69839 2.87372,-4.12789 2.87372,-6.63552c0,-2.56044 -1.09718,-5.01598 -3.00466,-6.74007c-1.72409,-1.5414 -3.81425,-2.27285 -6.53133,-2.27285zm-1.09753,5.56439l0.49667,0c1.04473,0 1.72409,0.10454 2.27285,0.36573c1.17567,0.54877 1.93318,1.80258 1.93318,3.0828c0,1.14927 -0.57446,2.24645 -1.46291,2.87336c-0.67936,0.52272 -1.17567,0.60086 -3.23979,0.62726l0,-6.94915z" clip-rule="evenodd" fill-rule="evenodd"/>
   <path id="svg_13" fill="#59656B" d="m175.67078,30.4025c-1.41081,0 -2.19471,-0.62726 -3.05711,-2.48194l-5.53869,0c-0.7575,1.75049 -1.64594,2.48194 -3.05675,2.48194c-1.64594,0 -2.92616,-1.30627 -2.92616,-2.97826c0,-0.49632 0.13059,-1.04508 0.36573,-1.56745l5.61719,-12.01723c0.52272,-1.07078 1.5414,-1.75014 2.76952,-1.75014c1.20172,0 2.24681,0.67936 2.79557,1.82863l5.66929,12.09537c0.23513,0.44422 0.36573,1.01904 0.36573,1.43686c0,1.64594 -1.33231,2.95221 -3.00431,2.95221zm-5.85233,-11.66241l-1.7709,4.8699l3.59355,0l-1.82265,-4.8699z" clip-rule="evenodd" fill-rule="evenodd"/>
  </g>
 </g>
</svg>