<svg width="17" height="19" viewBox="0 0 17 19" fill="none" xmlns="http://www.w3.org/2000/svg">
<path d="M6.4214 1.22404C7.7889 0.434353 9.48386 0.434353 10.8514 1.22404L14.6842 3.43902C16.0517 4.22871 16.8992 5.69253 16.8992 7.27191V11.6826C16.8992 13.2619 16.0517 14.7258 14.6842 15.5155L10.8514 17.7304C9.48386 18.5201 7.7889 18.5201 6.4214 17.7304L2.58853 15.5155C1.22102 14.7258 0.37355 13.2619 0.37355 11.6826V7.27191C0.37355 5.69253 1.22102 4.22871 2.58853 3.43902L6.4214 1.22404Z" fill="url(#paint0_linear_1_13)"/>
<path opacity="0.9" d="M12.1228 13.5702C11.391 13.628 10.7746 13.0887 10.7168 12.3568L10.3123 6.7712C10.2545 6.03928 10.7938 5.42296 11.5258 5.36519C12.2577 5.30741 12.874 5.84671 12.9318 6.57858L13.3363 12.1642C13.3748 12.8961 12.8355 13.5317 12.1228 13.5702Z" fill="white"/>
<path d="M12.3347 5.57688L12.2577 5.53836C11.6606 5.19166 10.8709 5.38426 10.5243 5.94281L8.61743 8.90895L6.80696 6.07766C6.61434 5.69242 6.20985 5.40352 5.74763 5.38426C5.01571 5.32649 4.39936 5.86578 4.34158 6.5977L3.9371 12.1833C3.86006 12.9152 4.41862 13.5315 5.15051 13.5893C5.88243 13.6471 6.49875 13.1078 6.55657 12.3759L6.71063 10.2572L7.57735 11.6055C7.67368 11.7981 7.80848 11.9714 8.0011 12.087C8.55966 12.4337 9.29157 12.2796 9.61899 11.721L12.9126 6.55919C12.874 6.03915 12.5466 5.71168 12.3347 5.57688Z" fill="white"/>
<defs>
<linearGradient id="paint0_linear_1_13" x1="15.5625" y1="18.3429" x2="1.24621" y2="-1.78029" gradientUnits="userSpaceOnUse">
<stop stop-color="#20BF6B"/>
<stop offset="1" stop-color="#26DE81"/>
</linearGradient>
</defs>
</svg>
