<?xml version="1.0" encoding="UTF-8"?>
<svg width="458px" height="144px" viewBox="0 0 458 144" version="1.1" xmlns="http://www.w3.org/2000/svg" xmlns:xlink="http://www.w3.org/1999/xlink">
    <!-- Generator: Sketch 54.1 (76490) - https://sketchapp.com -->
    <title>Group 17</title>
    <desc>Created with Sketch.</desc>
    <g id="Symbols" stroke="none" stroke-width="1" fill="none" fill-rule="evenodd">
        <g id="Group-17">
            <g id="Group-16">
                <path d="M141.8584,71.0127 C141.5924,70.9877 141.3204,70.9747 141.0454,70.9747 L134.0854,70.9747 C129.9684,70.9747 126.8324,73.9127 126.8324,77.0137 L126.8324,98.8827 C126.8324,102.0657 129.9684,104.9217 134.0854,104.9217 L141.0454,104.9217 C141.3204,104.9217 141.5924,104.9087 141.8584,104.8847 L141.8584,130.4967 C141.8584,137.2677 136.6404,142.8267 129.4304,142.8267 C68.4694,142.8267 61.8154,143.0407 13.2354,143.0407 C6.0254,143.0407 0.1804,136.8397 0.1804,129.9977 L0.1804,45.5417 C0.1804,38.4857 6.1134,32.7127 13.3244,32.7127 L128.9674,32.7837 C136.1774,32.7837 141.8584,38.3437 141.8584,45.3997 L141.8584,71.0127 Z M58.2754,55.0627 C38.3984,55.0627 28.0864,71.1847 28.0864,87.0287 C28.0864,102.8697 38.1274,118.7127 58.2754,118.7127 C78.4234,118.7127 88.1924,102.8697 88.1924,87.0287 C88.1924,71.1847 78.4234,55.0627 58.2754,55.0627 L58.2754,55.0627 Z M58.1394,65.6707 C45.3544,65.6707 38.8194,76.2797 38.8194,86.8877 C38.8194,97.4957 45.3544,108.1047 58.1394,108.1047 C70.9244,108.1047 77.4594,97.4957 77.4594,86.8877 C77.4594,76.2797 70.9954,65.6707 58.1394,65.6707 L58.1394,65.6707 Z M97.8524,116.5907 L108.5854,116.5907 L108.5854,105.9827 L97.8524,105.9827 L97.8524,116.5907 Z M109.6594,57.1837 L96.7784,57.1837 L98.9254,101.5977 L107.5124,101.5977 L109.6594,57.1837 Z M135.4774,75.2187 L139.6534,75.2187 C142.1234,75.2187 144.0054,77.3607 144.0054,79.7467 L144.0054,96.1497 C144.0054,98.5357 142.1234,100.6787 139.6534,100.6787 L135.4774,100.6787 C133.0074,100.6787 131.1254,98.5357 131.1254,96.1497 L131.1254,79.7467 C131.1254,77.4217 133.0074,75.2187 135.4774,75.2187 L135.4774,75.2187 Z M110.1664,1.3497 L28.5844,25.0177 C28.0864,25.0177 28.0864,25.3297 28.0864,25.5627 C28.0864,26.1087 28.3704,26.4197 28.5844,26.4197 L121.4654,26.4197 L121.4654,10.7707 C121.4654,7.7337 120.1864,5.0097 117.9834,3.0627 C115.7094,1.0387 112.9374,0.4927 110.1664,1.3497 L110.1664,1.3497 Z" id="Fill-2" fill="#FF0099"></path>
                <path d="M183.2427,111.4717 L183.2427,111.4717 L210.4837,111.4717 L210.4837,66.2527 L191.9307,66.2527 L190.8827,83.9097 C190.0967,95.7097 187.5497,104.8967 183.2427,111.4717 L183.2427,111.4717 Z M228.9937,135.7197 L218.5157,135.7197 L218.5157,120.2737 L176.6507,120.2737 L176.6507,135.7197 L165.9987,135.7197 L165.6497,111.4717 L170.7577,111.4717 C173.2897,109.0597 175.3127,105.5487 176.8257,100.9387 C178.3387,96.3287 179.3137,91.1097 179.7507,85.2797 L181.4097,57.4507 L221.4857,57.4507 L221.4857,111.4717 L229.5617,111.4717 L228.9937,135.7197 Z" id="Fill-4" fill="#000000"></path>
                <path d="M254.8896,81.1387 L254.8896,81.1387 C251.9796,81.1387 249.6296,82.1457 247.8396,84.1597 C246.0506,86.1727 244.9076,88.9777 244.4126,92.5737 L264.6256,92.5737 L264.6256,91.7957 C264.3916,88.2867 263.4466,85.6337 261.7876,83.8357 C260.1286,82.0377 257.8286,81.1387 254.8896,81.1387 M256.1566,121.1367 C249.4336,121.1367 243.9836,119.0437 239.8076,114.8587 C235.6306,110.6727 233.5426,105.1007 233.5426,98.1387 L233.5426,96.8447 C233.5426,92.1847 234.4526,88.0207 236.2716,84.3537 C238.0896,80.6857 240.6436,77.8307 243.9326,75.7877 C247.2216,73.7457 250.8886,72.7247 254.9336,72.7247 C261.3656,72.7247 266.3346,74.7527 269.8416,78.8087 C273.3486,82.8647 275.1026,88.6027 275.1026,96.0247 L275.1026,100.2527 L244.2386,100.2527 C244.5586,104.1077 245.8606,107.1567 248.1456,109.4007 C250.4296,111.6437 253.3036,112.7657 256.7676,112.7657 C261.6266,112.7657 265.5856,110.8247 268.6416,106.9407 L274.3606,112.3337 C272.4676,115.1247 269.9446,117.2887 266.7856,118.8277 C263.6276,120.3667 260.0846,121.1367 256.1566,121.1367" id="Fill-6" fill="#000000"></path>
                <polygon id="Fill-8" fill="#000000" points="323.001 120.2734 312.393 120.2734 312.393 101.4184 294.014 101.4184 294.014 120.2734 283.406 120.2734 283.406 73.5874 294.014 73.5874 294.014 93.0474 312.393 93.0474 312.393 73.5874 323.001 73.5874"></polygon>
                <path d="M344.5937,96.8447 L344.5937,96.8447 L344.5937,111.9037 L354.9397,111.9037 C357.5297,111.9037 359.5737,111.2627 361.0727,109.9827 C362.5727,108.7027 363.3217,106.8837 363.3217,104.5247 C363.3217,102.1657 362.5857,100.3037 361.1167,98.9377 C359.6477,97.5717 357.6597,96.8727 355.1577,96.8447 L344.5937,96.8447 Z M344.5937,88.4307 L354.9837,88.4307 C358.8537,88.4307 362.2307,89.0927 365.1117,90.4147 C367.9917,91.7387 370.1817,93.5937 371.6817,95.9817 C373.1807,98.3687 373.9297,101.1447 373.9297,104.3087 C373.9297,109.1137 372.2117,112.9677 368.7787,115.8717 C365.3437,118.7787 360.7747,120.2447 355.0707,120.2737 L333.9857,120.2737 L333.9857,73.5877 L344.5937,73.5877 L344.5937,88.4307 Z" id="Fill-10" fill="#000000"></path>
                <polygon id="Fill-12" fill="#000000" points="412.1572 82.0449 391.6392 82.0449 391.6392 120.2739 381.0752 120.2739 381.0752 73.5879 412.1572 73.5879"></polygon>
                <polygon id="Fill-14" fill="#000000" points="447.2559 73.5879 457.8199 73.5879 457.8199 120.2739 447.2559 120.2739 447.2559 89.1209 428.7459 120.2739 418.1809 120.2739 418.1809 73.5879 428.7459 73.5879 428.7459 104.7399"></polygon>
            </g>
        </g>
    </g>
</svg>